# xmcd CD database file
#
# Track frame offsets:
#	150
#	22210
#	45655
#	67758
#
# Disc length: 1213 seconds
#
# Revision: 0
# Processed by: cddbd v1.5.1PL0 Copyright (c) Steve Scherf et al.
# Submitted via: CDex 1.51
#
DISCID=2d04bb04
DTITLE=松本梨香・今野久美 - OVA「秘境探検ファム&イーリー」
DYEAR=1900
DGENRE=Japanese Children's Song (Doyo)
TTITLE0=Magical Beat!
TTITLE1=永遠伝説
TTITLE2=Magical Beat! (OFF VOCAL VERSION)
TTITLE3=永遠伝説 (OFF VOCAL VERSION)
EXTD=
EXTT0=
EXTT1=
EXTT2=
EXTT3=
PLAYORDER=
